<svg xmlns="http://www.w3.org/2000/svg" viewBox="0 0 436.11 241.56"><defs><style>.cls-1{fill:#8d7684;}.cls-2{fill:#949093;}.cls-3{fill:#373431;}.cls-4{fill:#e2e8f1;}.cls-5{fill:#a5a8a9;}.cls-6{fill:#d4d4d4;}.cls-7{fill:#474950;}.cls-8{fill:#c2c6c9;}.cls-9{fill:#abafb0;}.cls-10{fill:#c3c3c3;}.cls-11{fill:#a9adae;}.cls-12{fill:#b7babb;}.cls-13{fill:none;}</style></defs><title>computer-3</title><g id="Calque_2" data-name="Calque 2"><g id="Calque_1-2" data-name="Calque 1"><polygon class="cls-1" points="154.89 190.78 164.34 190.78 161.89 191.64 154.89 190.78"/><polygon class="cls-2" points="436.11 8.56 436.11 14.67 434.56 13.73 436.11 8.56"/><polygon class="cls-2" points="434.56 13.73 434.56 4.89 436.11 8.56 434.56 13.73"/><polygon class="cls-2" points="434.56 13.73 436.11 14.67 434.56 26.23 434.56 13.73"/><polygon class="cls-2" points="435.56 3.89 436.11 8.56 434.56 4.89 435.56 3.89"/><polygon class="cls-2" points="435.56 3.89 434.56 4.89 432.67 0.89 435.56 3.89"/><polygon class="cls-3" points="434.56 4.89 434.56 13.73 427.17 11.95 434.56 4.89"/><polygon class="cls-3" points="431.56 1.78 434.56 4.89 427.17 11.95 431.56 1.78"/><polygon class="cls-3" points="434.56 13.73 431.56 34.34 425.23 26.23 434.56 13.73"/><polygon class="cls-3" points="434.56 13.73 425.23 26.23 427.17 11.95 434.56 13.73"/><polygon class="cls-2" points="431.56 34.34 434.56 13.73 434.56 26.23 431.56 34.34"/><polygon class="cls-2" points="431.56 34.34 434.56 26.23 431.56 45.23 431.56 34.34"/><polygon class="cls-2" points="432.67 0.89 434.56 4.89 431.56 1.78 432.67 0.89"/><polygon class="cls-2" points="427.06 0 432.67 0.89 431.56 1.78 427.06 0"/><polygon class="cls-3" points="431.56 1.78 427.17 11.95 423.73 0.84 431.56 1.78"/><polygon class="cls-3" points="425.23 26.23 431.56 34.34 422.56 44.23 425.23 26.23"/><polygon class="cls-3" points="431.56 34.34 428.45 54.45 422.56 44.23 431.56 34.34"/><polygon class="cls-2" points="428.45 54.45 431.56 34.34 431.56 45.23 428.45 54.45"/><polygon class="cls-2" points="431.56 1.78 423.73 0.84 427.06 0 431.56 1.78"/><polygon class="cls-2" points="431.56 45.23 429 63.45 428.45 54.45 431.56 45.23"/><polygon class="cls-2" points="425.5 74.84 428.45 54.45 429 63.45 425.5 74.84"/><polygon class="cls-3" points="422.56 44.23 428.45 54.45 419.67 63.45 422.56 44.23"/><polygon class="cls-3" points="428.45 54.45 425.5 74.84 419.67 63.45 428.45 54.45"/><polygon class="cls-2" points="429 63.45 426.23 83.12 425.5 74.84 429 63.45"/><polygon class="cls-3" points="423.73 0.84 427.17 11.95 416.84 13.06 423.73 0.84"/><polygon class="cls-4" points="427.17 11.95 425.23 26.23 422.56 44.23 419.67 63.45 416.28 86.06 413.17 106.23 409.95 127.73 406.45 150.17 403.17 173.23 400.34 191.89 381.23 190.78 353.73 189.34 324.78 187.67 292.23 185.5 264.5 183.95 238 182.28 208.17 180.56 182.23 179 171.34 178.17 176.03 160.17 180.73 142.06 185 126.17 189.28 109.17 193.84 91.56 198.89 71.95 203.73 53.5 206.78 41.62 218.61 39.73 236.06 37.56 255 35.14 274 32.78 295.61 29.45 319.73 26.23 343.06 23.39 367.78 19.95 392.39 16.56 416.84 13.06 427.17 11.95"/><polygon class="cls-2" points="422.39 96.62 425.5 74.84 426.23 83.12 422.39 96.62"/><polygon class="cls-3" points="419.67 63.45 425.5 74.84 416.28 86.06 419.67 63.45"/><polygon class="cls-3" points="425.5 74.84 422.39 96.62 416.28 86.06 425.5 74.84"/><polygon class="cls-2" points="426.23 83.12 423.11 104 422.39 96.62 426.23 83.12"/><polygon class="cls-3" points="423.73 0.84 416.84 13.06 398.67 4.45 423.73 0.84"/><polygon class="cls-2" points="419.34 117.12 422.39 96.62 423.11 104 419.34 117.12"/><polygon class="cls-3" points="416.28 86.06 422.39 96.62 413.17 106.23 416.28 86.06"/><polygon class="cls-3" points="422.39 96.62 419.34 117.12 413.17 106.23 422.39 96.62"/><polygon class="cls-2" points="423.11 104 419.67 126.78 419.34 117.12 423.11 104"/><polygon class="cls-2" points="416 139.28 419.34 117.12 419.67 126.78 416 139.28"/><polygon class="cls-3" points="413.17 106.23 419.34 117.12 409.95 127.73 413.17 106.23"/><polygon class="cls-3" points="419.34 117.12 416 139.28 409.95 127.73 419.34 117.12"/><polygon class="cls-2" points="419.67 126.78 416.28 150.17 416 139.28 419.67 126.78"/><polygon class="cls-3" points="416.84 13.06 392.39 16.56 398.67 4.45 416.84 13.06"/><polygon class="cls-2" points="412.5 162.62 416 139.28 416.28 150.17 412.5 162.62"/><polygon class="cls-3" points="409.95 127.73 416 139.28 406.45 150.17 409.95 127.73"/><polygon class="cls-3" points="416 139.28 412.5 162.62 406.45 150.17 416 139.28"/><polygon class="cls-2" points="416.28 150.17 413.17 170.89 412.5 162.62 416.28 150.17"/><polygon class="cls-2" points="409.45 183.84 412.5 162.62 413.17 170.89 409.45 183.84"/><polygon class="cls-3" points="406.45 150.17 412.5 162.62 403.17 173.23 406.45 150.17"/><polygon class="cls-3" points="412.5 162.62 409.45 183.84 403.17 173.23 412.5 162.62"/><polygon class="cls-2" points="413.17 170.89 409.95 193.23 409.45 183.84 413.17 170.89"/><polygon class="cls-2" points="406.45 201.78 409.45 183.84 409.95 193.23 406.45 201.78"/><polygon class="cls-3" points="403.17 173.23 409.45 183.84 400.34 191.89 403.17 173.23"/><polygon class="cls-3" points="409.45 183.84 406.45 201.78 400.34 191.89 409.45 183.84"/><polygon class="cls-2" points="409.95 193.23 407.84 204.56 406.45 201.78 409.95 193.23"/><polygon class="cls-2" points="403.56 207.45 406.45 201.78 407.84 204.56 403.56 207.45"/><polygon class="cls-3" points="400.34 191.89 406.45 201.78 400.78 206.73 400.34 191.89"/><polygon class="cls-2" points="407.84 204.56 404 209.84 403.56 207.45 407.84 204.56"/><polygon class="cls-2" points="403.56 207.45 404 209.84 400.78 212.23 403.56 207.45"/><polygon class="cls-3" points="406.45 201.78 400.78 210 400.78 206.73 406.45 201.78"/><polygon class="cls-3" points="400.34 191.89 400.78 206.73 397.39 205.5 400.34 191.89"/><polygon class="cls-5" points="400.78 206.73 397.39 214.45 396.23 211 400.78 206.73"/><polygon class="cls-5" points="400.78 210 397.39 214.45 400.78 206.73 400.78 210"/><polygon class="cls-5" points="400.78 210 400.78 212.23 397.39 214.45 400.78 210"/><polygon class="cls-3" points="400.34 191.89 397.39 205.5 381.23 190.78 400.34 191.89"/><polygon class="cls-3" points="398.67 4.45 392.39 16.56 374.84 8.06 398.67 4.45"/><polygon class="cls-5" points="397.39 205.5 400.78 206.73 390.23 209.12 397.39 205.5"/><polygon class="cls-5" points="396.23 211 397.39 214.45 395.5 213.12 396.23 211"/><polygon class="cls-6" points="397.39 205.5 377.06 207.45 366.56 203.62 397.39 205.5"/><polygon class="cls-3" points="397.39 205.5 366.56 203.62 381.23 190.78 397.39 205.5"/><polygon class="cls-5" points="395.5 213.12 397.39 214.45 386.11 216.12 395.5 213.12"/><polygon class="cls-5" points="400.78 206.73 396.23 211 394.89 209.12 400.78 206.73"/><polygon class="cls-3" points="396.23 211 395.5 213.12 394.89 209.12 396.23 211"/><polygon class="cls-5" points="393.67 211.67 395.5 213.12 386.11 216.12 393.67 211.67"/><polygon class="cls-3" points="394.89 209.12 395.5 213.12 393.67 211.67 394.89 209.12"/><polygon class="cls-5" points="390.23 209.12 400.78 206.73 394.89 209.12 390.23 209.12"/><polygon class="cls-5" points="394.89 209.12 393.67 211.67 390.23 209.12 394.89 209.12"/><polygon class="cls-5" points="393.67 211.67 386.11 216.12 390.23 209.12 393.67 211.67"/><polygon class="cls-3" points="392.39 16.56 367.78 19.95 374.84 8.06 392.39 16.56"/><polygon class="cls-6" points="377.06 207.45 397.39 205.5 390.23 209.12 377.06 207.45"/><polygon class="cls-5" points="390.23 209.12 386.11 216.12 370.67 212.62 390.23 209.12"/><polygon class="cls-6" points="390.23 209.12 370.67 212.62 371.13 208.48 390.23 209.12"/><polygon class="cls-6" points="390.23 209.12 371.13 208.48 377.06 207.45 390.23 209.12"/><polygon class="cls-5" points="386.11 216.12 354.34 222.56 370.67 212.62 386.11 216.12"/><polygon class="cls-3" points="381.23 190.78 366.56 203.62 353.73 189.34 381.23 190.78"/><polygon class="cls-3" points="374.84 8.06 367.78 19.95 350.56 11.5 374.84 8.06"/><polygon class="cls-7" points="346.98 204.89 377.06 207.45 371.13 208.48 346.98 204.89"/><polygon class="cls-6" points="371.13 208.48 370.67 212.62 361.34 210.12 371.13 208.48"/><polygon class="cls-5" points="370.67 212.62 354.34 222.56 339.25 218.67 370.67 212.62"/><polygon class="cls-6" points="370.67 212.62 339.25 218.67 337.89 213.89 370.67 212.62"/><polygon class="cls-3" points="367.78 19.95 343.06 23.39 350.56 11.5 367.78 19.95"/><polygon class="cls-3" points="353.73 189.34 366.56 203.62 334.34 201.39 353.73 189.34"/><polygon class="cls-8" points="366.56 203.62 377.06 207.45 346.98 204.89 366.56 203.62"/><polygon class="cls-6" points="361.34 210.12 370.67 212.62 349.78 211.78 361.34 210.12"/><polygon class="cls-5" points="354.34 222.56 317.56 229.67 339.25 218.67 354.34 222.56"/><polygon class="cls-3" points="353.73 189.34 334.34 201.39 324.78 187.67 353.73 189.34"/><polygon class="cls-3" points="350.56 11.5 343.06 23.39 326.23 15 350.56 11.5"/><polygon class="cls-1" points="343.8 208.56 361.34 210.12 349.78 211.78 332.78 210.55 343.8 208.56"/><polygon class="cls-6" points="349.78 211.78 370.67 212.62 337.89 213.89 349.78 211.78"/><polygon class="cls-8" points="334.34 201.39 366.56 203.62 346.98 204.89 334.34 201.39"/><polygon class="cls-7" points="346.98 204.89 371.13 208.48 343.11 206.12 346.98 204.89"/><polygon class="cls-7" points="346.98 204.89 343.11 206.12 329.17 204.89 346.98 204.89"/><polygon class="cls-1" points="343.11 206.12 371.13 208.48 361.34 210.12 343.8 208.56 333.78 207.67 343.11 206.12"/><polygon class="cls-3" points="343.06 23.39 319.73 26.23 326.23 15 343.06 23.39"/><polygon class="cls-6" points="337.89 213.89 339.25 218.67 325.78 216.12 337.89 213.89"/><polygon class="cls-5" points="339.25 218.67 317.56 229.67 300.11 225.56 339.25 218.67"/><polygon class="cls-6" points="339.25 218.67 300.11 225.56 316.34 217.59 339.25 218.67"/><polygon class="cls-3" points="324.78 187.67 334.34 201.39 305.11 199.17 324.78 187.67"/><polygon class="cls-8" points="334.34 201.39 346.98 204.89 317.23 202.39 334.34 201.39"/><polygon class="cls-1" points="337.89 213.89 305.73 211.37 316.34 209.12 332.78 210.55 349.78 211.78 337.89 213.89"/><polygon class="cls-7" points="329.17 204.89 317.23 202.39 346.98 204.89 329.17 204.89"/><polygon class="cls-3" points="326.23 15 319.73 26.23 302.17 18.73 326.23 15"/><polygon class="cls-6" points="325.78 216.12 339.25 218.67 316.34 217.59 325.78 216.12"/><polygon class="cls-3" points="324.78 187.67 305.11 199.17 292.23 185.5 324.78 187.67"/><polygon class="cls-1" points="324.78 204.54 329.17 204.89 343.11 206.12 333.78 207.67 323.27 207 316.34 206.12 324.78 204.54"/><polygon class="cls-3" points="319.73 26.23 295.61 29.45 304.89 24.5 319.73 26.23"/><polygon class="cls-5" points="317.56 229.67 280 237.34 300.11 225.56 317.56 229.67"/><polygon class="cls-8" points="305.11 199.17 334.34 201.39 317.23 202.39 305.11 199.17"/><polygon class="cls-7" points="317.23 202.39 329.17 204.89 324.78 204.54 307.28 203.14 317.23 202.39"/><polygon class="cls-1" points="306.28 214.31 325.78 216.12 316.34 217.59 298.11 216.12 306.28 214.31"/><polygon class="cls-1" points="316.34 206.12 323.27 207 307.09 205.32 316.34 206.12"/><polygon class="cls-1" points="323.27 207 333.78 207.67 343.8 208.56 332.78 210.55 316.34 209.12 313.77 208.92 323.27 207"/><polygon class="cls-6" points="316.34 217.59 300.11 225.56 267.45 231.45 316.34 217.59"/><polygon class="cls-6" points="316.34 217.59 255.78 232.78 298.11 216.12 316.34 217.59"/><path class="cls-1" d="M314,209.17l-14.88-1.3Z" transform="translate(-0.25 -0.25)"/><polygon class="cls-7" points="288.64 200.23 317.23 202.39 307.28 203.14 288.64 200.23"/><polygon class="cls-1" points="307.28 203.14 324.78 204.54 316.34 206.12 307.09 205.32 306.69 205.28 306.67 205.28 298.11 204.54 307.28 203.14"/><polygon class="cls-3" points="305.61 21.95 319.73 26.23 306.5 23.39 305.61 21.95"/><polygon class="cls-3" points="306.5 23.39 319.73 26.23 304.89 24.5 306.5 23.39"/><polygon class="cls-3" points="302.17 18.73 319.73 26.23 305.61 21.95 302.17 18.73"/><polygon class="cls-4" points="305.61 21.95 306.5 23.39 304.34 23.06 305.61 21.95"/><polygon class="cls-3" points="302.17 18.73 305.61 21.95 304.34 23.06 302.17 18.73"/><polygon class="cls-3" points="292.23 185.5 305.11 199.17 278.61 197.06 292.23 185.5"/><polygon class="cls-8" points="305.11 199.17 317.23 202.39 288.64 200.23 305.11 199.17"/><polygon class="cls-4" points="304.34 23.06 306.5 23.39 304.89 24.5 304.34 23.06"/><polygon class="cls-3" points="304.34 23.06 304.89 24.5 295.61 29.45 304.34 23.06"/><polygon class="cls-3" points="302.17 18.73 304.34 23.06 295.61 29.45 302.17 18.73"/><polygon class="cls-3" points="302.17 18.73 295.61 29.45 278.56 21.95 302.17 18.73"/><polygon class="cls-5" points="300.11 225.56 280 237.34 267.45 231.45 300.11 225.56"/><polygon class="cls-1" points="307.09 205.32 323.27 207 313.77 208.92 298.89 207.62 298.86 207.62 294 207.2 306.67 205.28 306.69 205.28 307.09 205.32"/><polygon class="cls-1" points="298.11 216.12 277.95 214.01 286.6 212.48 286.61 212.48 306.28 214.31 298.11 216.12"/><polygon class="cls-6" points="298.11 216.12 255.78 232.78 245.67 232.78 298.11 216.12"/><polygon class="cls-3" points="295.61 29.45 274 32.78 278.56 21.95 295.61 29.45"/><polygon class="cls-1" points="293.73 210.17 285.36 209.37 298.86 207.62 298.89 207.62 313.77 208.92 316.34 209.12 305.73 211.37 293.73 210.17"/><polygon class="cls-1" points="305.73 211.37 337.89 213.89 325.78 216.12 306.28 214.31 286.61 212.48 286.6 212.48 286.29 212.45 283.23 212.17 293.73 210.17 305.73 211.37"/><polygon class="cls-3" points="292.23 185.5 278.61 197.06 264.5 183.95 292.23 185.5"/><polygon class="cls-7" points="288.64 200.23 307.28 203.14 289.5 201.68 288.64 200.23"/><polygon class="cls-8" points="288.64 200.23 278.61 197.06 305.11 199.17 288.64 200.23"/><polygon class="cls-7" points="289.5 201.68 272.17 200.23 288.64 200.23 289.5 201.68"/><polygon class="cls-1" points="287.98 203.92 280.61 203.28 289.5 201.68 307.28 203.14 298.11 204.54 287.98 203.92"/><polygon class="cls-1" points="285.36 209.37 293.73 210.17 283.23 212.17 266.7 210.87 264.5 210.56 276.2 208.62 285.36 209.37"/><polygon class="cls-1" points="294 207.2 279.94 205.85 279.93 205.85 276.57 205.53 287.98 203.92 298.11 204.54 306.67 205.28 294 207.2"/><polygon class="cls-5" points="280 237.34 263 240.45 267.45 231.45 280 237.34"/><polygon class="cls-8" points="278.61 197.06 288.64 200.23 264.5 198.64 278.61 197.06"/><polygon class="cls-3" points="278.61 197.06 248.95 195 264.5 183.95 278.61 197.06"/><polygon class="cls-3" points="278.56 21.95 274 32.78 257.06 25.28 278.56 21.95"/><polygon class="cls-6" points="277.95 214.01 298.11 216.12 245.67 232.78 276.78 213.89 277.95 214.01"/><polygon class="cls-1" points="266.7 210.87 286.29 212.45 286.6 212.48 277.95 214.01 276.78 213.89 258.06 211.78 266.7 210.87"/><polygon class="cls-1" points="280.61 203.28 287.98 203.92 276.57 205.53 269.11 204.95 260.25 204.25 272.17 202.53 280.61 203.28"/><polygon class="cls-6" points="276.78 213.89 245.67 232.78 230.78 231.45 276.78 213.89"/><polygon class="cls-6" points="276.78 213.89 230.78 231.45 258.06 211.78 276.78 213.89"/><polygon class="cls-1" points="279.94 205.85 294 207.2 298.86 207.62 285.36 209.37 276.2 208.62 268.89 207.78 279.93 205.85 279.94 205.85"/><polygon class="cls-3" points="274 32.78 255 35.14 257.06 25.28 274 32.78"/><polygon class="cls-7" points="264.5 198.64 288.64 200.23 272.17 200.23 264.5 198.64"/><polygon class="cls-1" points="272.17 200.23 289.5 201.68 280.61 203.28 272.17 202.53 264.98 201.89 272.17 200.23"/><polygon class="cls-1" points="268.89 207.78 276.2 208.62 264.5 210.56 249.66 208.98 246.28 208.62 258.23 206.78 268.89 207.78"/><polygon class="cls-6" points="255.78 232.78 316.34 217.59 267.45 231.45 255.78 232.78"/><polygon class="cls-5" points="267.45 231.45 263 240.45 255.78 232.78 267.45 231.45"/><polygon class="cls-1" points="266.7 210.87 258.06 211.78 264.5 210.56 266.7 210.87"/><polygon class="cls-8" points="248.95 195 278.61 197.06 264.5 198.64 248.95 195"/><polygon class="cls-7" points="264.5 198.64 272.17 200.23 258.06 199.16 251.25 198.64 264.5 198.64"/><polygon class="cls-3" points="264.5 183.95 248.95 195 238 182.28 264.5 183.95"/><polygon class="cls-5" points="255.78 232.78 263 240.45 253.11 241.56 255.78 232.78"/><polygon class="cls-1" points="249.66 208.98 264.5 210.56 258.06 211.78 241.59 210.27 249.66 208.98"/><polygon class="cls-1" points="269.11 204.95 276.57 205.53 279.93 205.85 268.89 207.78 258.23 206.78 251.25 206.09 262.08 204.4 269.11 204.95"/><polygon class="cls-6" points="258.06 211.78 230.78 231.45 190 226.12 258.06 211.78"/><polygon class="cls-3" points="257.06 25.28 255 35.14 238.56 28.12 257.06 25.28"/><polygon class="cls-5" points="255.78 232.78 253.11 241.56 245.67 232.78 255.78 232.78"/><polygon class="cls-3" points="255 35.14 236.06 37.56 238.56 28.12 255 35.14"/><polygon class="cls-1" points="258.06 199.16 272.17 200.23 264.98 201.89 253.56 201.17 248.31 200.64 258.06 199.16"/><polygon class="cls-5" points="245.67 232.78 253.11 241.56 245.67 241.12 245.67 232.78"/><polygon class="cls-1" points="262.08 204.4 251.25 206.09 241.59 205.26 241.56 205.26 235.28 204.73 247.05 203 260.25 204.25 262.08 204.4"/><polygon class="cls-7" points="234.81 196.06 264.5 198.64 251.25 198.64 234.81 196.06"/><polygon class="cls-1" points="251.25 206.09 241.56 205.26 241.59 205.26 251.25 206.09"/><polygon class="cls-3" points="238 182.28 248.95 195 222.06 192.73 238 182.28"/><polygon class="cls-8" points="248.95 195 264.5 198.64 234.81 196.06 248.95 195"/><polygon class="cls-1" points="251.25 198.64 258.06 199.16 248.31 200.64 239.2 199.88 233.81 199.43 242.95 197.94 248.5 198.41 251.25 198.64"/><polygon class="cls-1" points="253.56 201.17 264.98 201.89 272.17 202.53 260.25 204.25 247.05 203 243.98 202.71 253.56 201.17"/><polygon class="cls-1" points="241.56 205.26 251.25 206.09 258.23 206.78 246.28 208.62 230.45 207.03 241.56 205.26"/><polygon class="cls-9" points="245.67 232.78 245.67 241.12 234.23 240.45 245.67 232.78"/><polygon class="cls-9" points="245.67 232.78 234.23 240.45 230.78 231.45 245.67 232.78"/><polygon class="cls-1" points="248.31 200.64 253.56 201.17 243.98 202.71 230.59 201.67 228.81 201.53 239.2 199.88 248.31 200.64"/><polygon class="cls-6" points="241.59 210.27 258.06 211.78 190 226.12 238.23 210.78 239.95 210.12 241.59 210.27"/><polygon class="cls-3" points="238.56 28.12 236.06 37.56 221.73 30.56 238.56 28.12"/><polygon class="cls-3" points="238 182.28 222.06 192.73 208.17 180.56 238 182.28"/><polygon class="cls-10" points="237.97 210.75 237.89 210.78 79.67 211.34 130.11 199.73 237.97 210.75"/><polygon class="cls-10" points="237.89 210.78 237.67 210.85 159.34 220.62 79.67 211.34 237.89 210.78"/><polygon class="cls-3" points="236.06 37.56 218.61 39.73 221.73 30.56 236.06 37.56"/><polygon class="cls-8" points="222.06 192.73 248.95 195 234.81 196.06 222.06 192.73"/><polygon class="cls-7" points="234.81 196.06 251.25 198.64 248.5 198.41 224.78 196.39 234.81 196.06"/><polygon class="cls-9" points="230.78 231.45 234.23 240.45 210.89 236.95 230.78 231.45"/><polygon class="cls-9" points="230.78 231.45 210.89 236.95 190 226.12 230.78 231.45"/><polygon class="cls-1" points="225.5 203.89 235.28 204.73 241.56 205.26 230.45 207.03 213.2 205.7 225.48 203.89 225.5 203.89"/><polygon class="cls-1" points="243.98 202.71 247.05 203 235.28 204.73 225.5 203.89 225.48 203.89 219.36 203.37 230.59 201.67 243.98 202.71"/><polygon class="cls-1" points="230.45 207.03 246.28 208.62 249.66 208.98 241.59 210.27 239.95 210.12 230.24 209.2 220.27 208.25 230.45 207.03"/><polygon class="cls-7" points="206.48 193.98 234.81 196.06 224.78 196.39 206.48 193.98"/><polygon class="cls-1" points="228.92 196.75 242.95 197.94 233.81 199.43 224.36 198.57 219.14 198.09 228.92 196.75"/><polygon class="cls-1" points="233.81 199.43 239.2 199.88 228.81 201.53 219.61 200.68 216.01 200.34 215.99 200.34 213.59 200.12 224.36 198.57 233.81 199.43"/><polygon class="cls-8" points="222.06 192.73 234.81 196.06 206.48 193.98 222.06 192.73"/><polygon class="cls-3" points="222.06 192.73 193.23 190.73 208.17 180.56 222.06 192.73"/><polygon class="cls-3" points="221.73 30.56 218.61 39.73 208.89 32.78 221.73 30.56"/><polygon class="cls-3" points="218.61 39.73 206.78 41.62 208.89 32.78 218.61 39.73"/><polygon class="cls-1" points="228.81 201.53 230.59 201.67 219.36 203.37 213.47 202.82 210.06 202.51 203.42 201.89 215.99 200.34 216.01 200.34 219.61 200.68 228.81 201.53"/><polygon class="cls-1" points="208.98 197.53 219.14 198.09 224.36 198.57 213.59 200.12 201.12 199.03 199.56 198.89 208.98 197.53"/><polygon class="cls-1" points="213.2 205.7 197.25 204.15 210.06 202.51 213.47 202.82 219.36 203.37 225.48 203.89 213.2 205.7"/><polygon class="cls-9" points="210.89 236.95 169.17 231 190 226.12 210.89 236.95"/><polygon class="cls-1" points="214.25 195.68 228.92 196.75 219.14 198.09 208.98 197.53 204.59 197.06 214.25 195.68"/><polygon class="cls-3" points="208.89 32.78 206.78 41.62 203.17 38.28 208.89 32.78"/><polygon class="cls-3" points="208.17 180.56 193.23 190.73 182.23 179 208.17 180.56"/><polygon class="cls-3" points="206.78 41.62 203.73 53.5 200.61 45.84 206.78 41.62"/><polygon class="cls-3" points="206.78 41.62 200.61 45.84 203.17 38.28 206.78 41.62"/><polygon class="cls-8" points="206.48 193.98 193.23 190.73 222.06 192.73 206.48 193.98"/><polygon class="cls-7" points="206.48 193.98 224.78 196.39 214.25 195.68 199.39 194.67 206.48 194.67 203.18 194.3 206.48 193.98"/><polygon class="cls-7" points="206.48 193.98 203.18 194.3 179.31 191.64 206.48 193.98"/><polygon class="cls-3" points="200.61 45.84 203.73 53.5 196.84 60.06 200.61 45.84"/><polygon class="cls-3" points="203.73 53.5 198.89 71.95 196.84 60.06 203.73 53.5"/><polygon class="cls-7" points="203.18 194.3 199.39 194.67 179.31 191.64 203.18 194.3"/><polygon class="cls-1" points="201.12 199.03 189.14 200.46 199.56 198.89 201.12 199.03"/><polygon class="cls-1" points="204.59 197.06 195.45 196.28 190.95 195.89 199.39 194.67 214.25 195.68 204.59 197.06"/><polygon class="cls-3" points="196.84 60.06 198.89 71.95 191.84 79.06 196.84 60.06"/><polygon class="cls-3" points="198.89 71.95 193.84 91.56 191.84 79.06 198.89 71.95"/><polygon class="cls-1" points="194.53 201.23 203.42 201.89 210.06 202.51 197.25 204.15 183.23 202.79 194.53 201.23"/><polygon class="cls-1" points="195.45 196.28 204.59 197.06 208.98 197.53 199.56 198.89 185.42 197.98 195.45 196.28"/><polygon class="cls-1" points="203.42 201.89 194.53 201.23 189.14 200.46 201.12 199.03 213.59 200.12 215.99 200.34 203.42 201.89"/><polygon class="cls-3" points="191.84 79.06 193.84 91.56 187.28 97.5 191.84 79.06"/><polygon class="cls-3" points="193.84 91.56 189.28 109.17 187.28 97.5 193.84 91.56"/><polygon class="cls-3" points="182.23 179 193.23 190.73 169.84 188.64 182.23 179"/><polygon class="cls-8" points="193.23 190.73 206.48 193.98 179.31 191.64 193.23 190.73"/><polygon class="cls-1" points="191.11 193.98 199.39 194.67 190.95 195.89 182.86 195.12 178.2 194.67 186.55 193.6 191.11 193.98"/><polygon class="cls-9" points="190 226.12 169.17 231 152.67 221.45 190 226.12"/><polygon class="cls-3" points="187.28 97.5 189.28 109.17 182.56 115.12 187.28 97.5"/><polygon class="cls-3" points="189.28 109.17 185 126.17 182.56 115.12 189.28 109.17"/><polygon class="cls-1" points="186.58 193.6 191.11 193.98 186.55 193.6 186.58 193.6"/><polygon class="cls-1" points="190.95 195.89 195.45 196.28 185.42 197.98 172.95 196.78 171.82 196.67 182.86 195.12 190.95 195.89"/><polygon class="cls-1" points="185.42 197.98 199.56 198.89 189.14 200.46 181.06 199.83 176.03 199.43 185.42 197.98"/><polygon class="cls-3" points="182.56 115.12 185 126.17 177.67 133.28 182.56 115.12"/><polygon class="cls-3" points="185 126.17 180.73 142.06 177.67 133.28 185 126.17"/><polygon class="cls-1" points="189.14 200.46 194.53 201.23 183.23 202.79 168.21 201.34 181.06 199.83 189.14 200.46"/><polygon class="cls-3" points="182.23 179 169.84 188.64 171.34 178.17 182.23 179"/><polygon class="cls-3" points="177.67 133.28 180.73 142.06 173.17 150.62 177.67 133.28"/><polygon class="cls-3" points="180.73 142.06 176.03 160.17 173.17 150.62 180.73 142.06"/><polygon class="cls-8" points="169.84 188.64 193.23 190.73 179.31 191.64 169.84 188.64"/><polygon class="cls-7" points="179.31 191.64 199.39 194.67 191.11 193.98 186.58 193.6 186.55 193.6 176.03 192.73 179.31 191.64"/><polygon class="cls-7" points="164.34 190.78 179.31 191.64 176.03 192.73 164.34 190.78"/><polygon class="cls-3" points="173.17 150.62 176.03 160.17 169.17 166.39 173.17 150.62"/><polygon class="cls-3" points="176.03 160.17 171.34 178.17 169.17 166.39 176.03 160.17"/><polygon class="cls-1" points="176.03 192.73 186.55 193.6 178.2 194.67 169.64 194 169.63 194 166.17 193.73 176.03 192.73"/><polygon class="cls-1" points="172.95 196.78 185.42 197.98 176.03 199.43 167.84 198.65 167.83 198.65 161.92 198.09 172.95 196.78"/><polygon class="cls-1" points="171.82 196.67 172.95 196.78 161.92 198.09 154.18 197.46 154.16 197.46 149.2 197.06 160.28 195.56 171.82 196.67"/><polygon class="cls-1" points="169.64 194 178.2 194.67 182.86 195.12 171.82 196.67 160.28 195.56 157.73 195.31 169.63 194 169.64 194"/><polygon class="cls-3" points="169.17 166.39 171.34 178.17 165.84 179.5 169.17 166.39"/><polygon class="cls-3" points="171.34 178.17 169.84 188.64 164.34 188.23 171.34 178.17"/><polygon class="cls-3" points="171.34 178.17 164.34 188.23 165.84 179.5 171.34 178.17"/><polygon class="cls-8" points="169.84 188.64 179.31 191.64 164.34 190.78 169.84 188.64"/><polygon class="cls-9" points="169.17 231 130.11 225.67 152.67 221.45 169.17 231"/><polygon class="cls-1" points="167.84 198.65 176.03 199.43 181.06 199.83 168.21 201.34 168.2 201.34 154.18 199.98 167.83 198.65 167.84 198.65"/><polygon class="cls-10" points="168.01 203.31 213.02 207.57 230.24 209.2 239.95 210.12 237.97 210.75 130.11 199.73 144.48 201.09 168.01 203.31"/><polygon class="cls-1" points="166.17 193.73 169.63 194 157.73 195.31 166.17 193.73"/><polygon class="cls-8" points="164.34 190.78 164.34 188.23 169.84 188.64 164.34 190.78"/><polygon class="cls-8" points="164.34 188.23 164.34 190.78 161.23 189.45 164.34 188.23"/><polygon class="cls-1" points="164.34 190.78 176.03 192.73 166.17 193.73 156.81 192.95 161.89 191.64 164.34 190.78"/><polygon class="cls-8" points="161.23 189.45 164.34 190.78 154.89 190.78 161.23 189.45"/><polygon class="cls-8" points="156.23 188.23 164.34 188.23 161.23 189.45 156.23 188.23"/><polygon class="cls-10" points="159.78 220.67 237.67 210.85 190 226.12 152.67 221.45 159.78 220.67"/><polygon class="cls-1" points="156.81 192.95 166.17 193.73 157.73 195.31 146.09 194.52 156.81 192.95"/><polygon class="cls-8" points="156.23 188.23 161.23 189.45 122.45 192.23 156.23 188.23"/><polygon class="cls-1" points="154.89 190.78 161.89 191.64 156.81 192.95 142.23 191.64 154.89 190.78"/><polygon class="cls-1" points="154.18 197.46 161.92 198.09 167.83 198.65 154.18 199.98 140.28 198.89 154.16 197.46 154.18 197.46"/><polygon class="cls-1" points="183.23 202.79 197.25 204.15 213.2 205.7 230.45 207.03 220.27 208.25 213.02 207.57 168.01 203.31 144.48 201.09 154.18 199.98 168.2 201.34 168.21 201.34 183.23 202.79"/><polygon class="cls-9" points="152.67 221.45 130.11 225.67 118.56 217.34 152.67 221.45"/><polygon class="cls-11" points="152.67 221.45 118.56 217.34 119.45 216.85 152.67 221.45"/><polygon class="cls-1" points="142.23 191.64 156.81 192.95 146.09 194.52 126.77 192.69 142.22 191.64 142.23 191.64"/><polygon class="cls-1" points="157.73 195.31 160.28 195.56 149.2 197.06 139.95 196.45 136.06 195.79 146.09 194.52 157.73 195.31"/><polygon class="cls-1" points="139.95 196.45 149.2 197.06 154.16 197.46 140.28 198.89 136.31 198.5 126.97 197.59 139.95 196.45"/><polygon class="cls-1" points="126.77 192.69 146.09 194.52 136.06 195.79 111.57 193.73 126.75 192.69 126.77 192.69"/><polygon class="cls-1" points="140.28 198.89 154.18 199.98 144.48 201.09 130.11 199.73 127.57 199.48 136.31 198.5 140.28 198.89"/><polygon class="cls-12" points="130.11 199.73 79.67 211.34 48.34 208.34 130.11 199.73"/><polygon class="cls-12" points="130.11 199.73 48.34 208.34 86.23 195.45 102.76 197.06 115.75 198.33 127.57 199.48 130.11 199.73"/><polygon class="cls-9" points="130.11 225.67 110.45 223 117.78 219.56 130.11 225.67"/><polygon class="cls-1" points="126.97 197.59 136.31 198.5 127.57 199.48 115.75 198.33 124.42 197.34 126.95 197.59 126.97 197.59"/><polygon class="cls-1" points="124.42 197.34 115.75 198.33 102.76 197.06 112.7 196.17 124.42 197.34"/><polygon class="cls-8" points="122.45 192.23 94.89 193.34 156.23 188.23 122.45 192.23"/><polygon class="cls-8" points="122.45 192.23 86.23 195.45 94.89 193.34 122.45 192.23"/><polygon class="cls-11" points="119.78 216.67 79.67 211.34 159.34 220.62 152.67 221.45 119.45 216.85 119.78 216.67"/><polygon class="cls-11" points="119.78 216.67 119.45 216.85 79.67 211.34 119.78 216.67"/><polygon class="cls-9" points="118.56 217.34 130.11 225.67 117.78 219.56 117.81 219.47 118.56 219.56 118.56 217.34"/><polygon class="cls-11" points="118.56 217.34 79.67 211.34 119.45 216.85 118.56 217.34"/><polygon class="cls-9" points="118.56 217.34 118.56 219.56 117.81 219.47 118.56 217.34"/><polygon class="cls-9" points="118.56 217.34 117.81 219.47 79.67 215 118.56 217.34"/><polygon class="cls-9" points="118.56 217.34 79.67 215 79.67 211.34 118.56 217.34"/><polygon class="cls-9" points="117.78 219.56 110.45 223 79.67 215 117.78 219.56"/><polygon class="cls-1" points="124.42 197.34 112.7 196.17 97.68 194.67 111.57 193.73 136.06 195.79 139.95 196.45 126.97 197.59 126.95 197.59 124.42 197.34"/><polygon class="cls-9" points="110.45 223 69.67 217.28 79.67 215 110.45 223"/><polygon class="cls-1" points="97.68 194.67 112.7 196.17 102.76 197.06 86.23 195.45 97.67 194.67 97.68 194.67"/><polygon class="cls-12" points="43.11 197.78 94.89 193.34 86.23 195.45 43.11 197.78"/><polygon class="cls-12" points="86.23 195.45 48.34 208.34 13.45 204 86.23 195.45"/><polygon class="cls-9" points="79.67 211.34 79.67 215 77.78 212 79.67 211.34"/><polygon class="cls-9" points="77.78 213.23 79.67 215 69.67 217.28 77.78 213.23"/><polygon class="cls-9" points="77.78 212 79.67 215 77.78 213.23 77.78 212"/><polygon class="cls-9" points="48.34 208.34 79.67 211.34 77.78 212 48.34 208.34"/><polygon class="cls-9" points="77.78 212 77.78 213.23 69.67 217.28 77.78 212"/><polygon class="cls-9" points="77.78 212 69.67 217.28 48.34 208.34 77.78 212"/><polygon class="cls-9" points="69.67 217.28 28.34 212 48.34 208.34 69.67 217.28"/><polygon class="cls-9" points="48.34 208.34 28.34 212 13.45 204 48.34 208.34"/><polygon class="cls-12" points="43.11 197.78 86.23 195.45 13.45 204 43.11 197.78"/><polygon class="cls-12" points="43.11 197.78 13.45 204 8.11 200.45 43.11 197.78"/><polygon class="cls-9" points="28.34 212 1.23 208 13.45 204 28.34 212"/><polygon class="cls-9" points="13.45 204 1.23 208 0 201.78 13.45 204"/><polygon class="cls-12" points="13.45 204 0 201.78 8.11 200.45 13.45 204"/><polygon class="cls-10" points="239.95 210.12 238.23 210.78 190 226.12 239.95 210.12"/><polygon class="cls-9" points="117.81 219.47 117.78 219.56 79.67 215 117.81 219.47"/><polygon class="cls-9" points="152.67 221.45 159.33 220.62 159.78 220.67 152.67 221.45"/><polygon class="cls-13" points="190 226.12 159.33 220.62 130.12 199.73 239.95 210.12 190 226.12"/><polygon class="cls-10" points="159.78 220.67 130.12 199.73 239.95 210.12 190 226.12 159.78 220.67"/><polygon class="cls-8" points="86.23 195.45 97.67 194.67 111.57 193.73 126.75 192.69 142.22 191.64 154.89 190.78 161.23 189.45 122.45 192.23 86.23 195.45"/><polygon class="cls-7" points="199.39 194.67 206.48 194.67 203.16 194.3 199.39 194.67"/><polygon class="cls-2" points="406.45 201.78 400.78 210 400.78 212.23 403.56 207.45 406.45 201.78"/></g></g></svg>