<?xml version="1.0" standalone="no"?>
<!DOCTYPE svg PUBLIC "-//W3C//DTD SVG 20010904//EN"
 "http://www.w3.org/TR/2001/REC-SVG-20010904/DTD/svg10.dtd">
<svg version="1.0" xmlns="http://www.w3.org/2000/svg"
 width="900.000000pt" height="980.000000pt" viewBox="0 0 900.000000 980.000000"
 preserveAspectRatio="xMidYMid meet">
<metadata>
Created by potrace 1.16, written by Peter Selinger 2001-2019
</metadata>
<g transform="translate(0.000000,980.000000) scale(0.100000,-0.100000)"
fill="#000000" stroke="none">
<path d="M4435 9789 c-156 -22 -295 -95 -393 -205 -57 -63 -122 -188 -141
-268 -17 -69 -14 -219 4 -291 55 -217 230 -393 445 -450 65 -17 217 -19 292
-4 138 28 292 135 373 258 22 33 44 61 49 61 4 0 40 -21 80 -47 294 -196 570
-529 799 -962 35 -66 67 -118 72 -113 4 4 5 2 2 -4 -4 -7 22 -76 57 -155 283
-640 457 -1386 532 -2289 22 -254 25 -949 6 -1205 -48 -657 -148 -1226 -302
-1725 -30 -97 -27 -135 13 -175 19 -19 46 -37 61 -41 40 -10 102 12 125 44 35
50 144 457 209 787 189 945 209 2047 56 3028 -140 895 -418 1696 -789 2267
-226 350 -505 634 -784 800 l-76 45 -7 85 c-19 257 -219 488 -469 544 -93 20
-146 24 -214 15z m227 -281 c68 -31 139 -101 176 -172 24 -46 27 -62 27 -156
0 -99 -2 -110 -32 -171 -20 -40 -52 -83 -83 -112 -27 -25 -50 -44 -50 -42 0 3
-17 -4 -38 -15 -59 -31 -145 -43 -215 -31 -125 22 -216 90 -273 207 -32 64
-37 84 -37 146 -1 88 12 135 57 210 18 31 31 60 27 64 -3 4 -1 4 6 0 6 -3 15
-1 20 6 12 20 105 74 153 89 14 5 66 7 115 6 74 -2 100 -7 147 -29z"/>
<path d="M1961 7769 c-257 -23 -542 -89 -746 -174 -166 -69 -414 -222 -400
-246 4 -5 0 -6 -8 -3 -19 7 -200 -183 -260 -273 -250 -376 -292 -847 -123
-1382 87 -274 262 -637 326 -675 97 -57 210 33 180 143 -6 22 -14 42 -19 45
-13 8 -124 230 -164 326 -187 456 -225 829 -116 1155 133 399 506 680 1047
790 226 46 281 50 637 49 349 0 463 -9 758 -60 101 -17 143 -9 176 32 42 54
30 144 -24 180 -41 26 -346 73 -614 94 -155 12 -512 11 -650 -1z"/>
<path d="M6720 7767 c-41 -14 -80 -68 -80 -109 0 -45 27 -94 63 -111 22 -12
84 -19 207 -27 279 -16 510 -60 705 -132 50 -18 95 -33 100 -33 6 0 12 -3 15
-6 3 -4 34 -21 70 -39 179 -89 364 -248 458 -393 28 -43 54 -87 57 -98 4 -10
11 -16 17 -13 6 4 8 3 5 -3 -3 -5 7 -43 23 -84 82 -212 94 -482 34 -777 -21
-108 -102 -345 -167 -487 -123 -276 -342 -615 -595 -924 -79 -96 -87 -154 -31
-211 38 -37 90 -48 135 -27 56 27 266 293 436 552 280 428 446 842 499 1239
15 119 6 416 -16 516 -94 422 -356 743 -771 945 -242 118 -590 203 -904 220
-58 3 -132 7 -165 10 -33 2 -76 -1 -95 -8z"/>
<path d="M5615 7648 c-396 -96 -534 -136 -835 -240 -548 -190 -1169 -490
-1715 -828 -278 -172 -639 -425 -629 -441 3 -5 -1 -6 -8 -4 -40 15 -881 -716
-861 -748 3 -5 2 -7 -4 -4 -13 8 -97 -78 -89 -92 4 -6 1 -9 -6 -7 -35 11 -419
-456 -604 -734 -353 -530 -533 -1027 -536 -1479 l-1 -146 -61 -41 c-114 -75
-208 -221 -242 -372 -21 -94 -14 -230 15 -319 60 -180 204 -327 382 -390 97
-35 261 -43 359 -18 101 26 269 123 254 147 -4 6 -3 8 3 5 6 -4 29 13 51 37
185 201 210 505 60 743 -106 168 -309 283 -500 283 -55 0 -70 3 -75 17 -11 29
16 281 43 403 137 614 607 1326 1302 1972 362 337 632 549 1080 852 63 42 116
76 119 76 4 0 21 11 39 25 18 14 36 25 39 25 4 0 19 8 33 19 15 10 115 69 222
131 691 398 1385 682 2086 854 232 56 254 70 254 159 0 53 -27 93 -76 113 -37
16 -43 16 -99 2z m-4830 -4927 c71 -33 158 -126 186 -198 31 -80 31 -196 0
-275 -62 -158 -243 -260 -405 -228 -176 35 -294 167 -304 342 -10 166 80 306
237 369 67 28 216 22 286 -10z"/>
<path d="M4360 5098 c-121 -42 -204 -119 -263 -245 -29 -62 -32 -77 -32 -168
0 -55 6 -118 12 -140 17 -55 77 -151 92 -147 7 1 10 -2 7 -7 -11 -16 96 -100
164 -128 56 -24 78 -27 165 -27 79 1 112 5 158 23 31 12 57 27 57 32 0 5 6 9
14 9 8 0 38 22 68 49 237 217 181 590 -110 729 -70 34 -86 37 -172 40 -78 2
-107 -2 -160 -20z"/>
<path d="M1375 4337 c-31 -31 -35 -41 -35 -86 0 -42 5 -56 33 -88 82 -95 151
-162 161 -156 6 3 8 3 4 -2 -11 -11 12 -36 25 -28 5 3 7 1 4 -4 -8 -12 175
-192 358 -352 429 -376 909 -715 1440 -1020 231 -133 725 -376 980 -481 697
-289 1406 -472 2014 -520 173 -13 533 -13 681 1 336 30 671 122 901 246 l67
36 48 -30 c93 -57 159 -76 284 -81 153 -6 224 12 373 94 53 29 153 138 192
209 55 97 75 166 82 271 18 279 -152 533 -417 624 -89 31 -251 39 -340 16
-221 -56 -398 -230 -456 -447 -34 -129 -20 -286 38 -415 10 -24 17 -48 14 -53
-17 -27 -237 -113 -390 -152 -249 -64 -430 -84 -741 -83 -751 3 -1601 214
-2505 622 -277 125 -655 324 -900 475 -36 22 -74 45 -85 52 -62 34 -314 202
-460 305 -382 271 -678 521 -1009 854 l-218 220 -54 4 c-51 4 -56 2 -89 -31z
m7155 -1618 c70 -33 141 -103 177 -177 25 -51 28 -68 28 -157 0 -90 -3 -106
-29 -159 -166 -337 -658 -248 -702 127 -16 138 70 292 199 358 66 34 86 38
182 36 73 -2 101 -7 145 -28z"/>
<path d="M2636 2180 c-46 -14 -86 -66 -86 -114 0 -25 93 -277 144 -391 79
-174 110 -234 119 -228 6 3 7 1 3 -6 -14 -23 182 -362 313 -541 533 -726 1182
-994 1831 -758 198 72 416 212 596 385 100 95 195 204 188 215 -4 6 -2 8 4 4
19 -11 270 339 308 429 11 28 12 44 4 74 -15 56 -50 84 -112 88 -69 5 -77 -2
-200 -187 -176 -264 -355 -456 -579 -622 -57 -43 -220 -126 -305 -157 -137
-49 -240 -64 -404 -58 -178 6 -270 30 -445 117 -460 228 -874 772 -1171 1539
-35 90 -71 173 -80 183 -10 10 -33 22 -53 28 -41 11 -36 11 -75 0z"/>
</g>
</svg>
