<?xml version="1.0" standalone="no"?>
<!DOCTYPE svg PUBLIC "-//W3C//DTD SVG 20010904//EN"
 "http://www.w3.org/TR/2001/REC-SVG-20010904/DTD/svg10.dtd">
<svg version="1.0" xmlns="http://www.w3.org/2000/svg"
 width="300.000000pt" height="299.000000pt" viewBox="0 0 300.000000 299.000000"
 preserveAspectRatio="xMidYMid meet">
<metadata>
Created by potrace 1.16, written by Peter Selinger 2001-2019
</metadata>
<g transform="translate(0.000000,299.000000) scale(0.100000,-0.100000)"
fill="#000000" stroke="none">
<path d="M1700 2984 c0 -3 13 -18 29 -34 53 -53 58 -117 17 -212 -20 -46 -20
-98 -2 -143 19 -46 36 -45 29 0 -10 61 20 117 99 187 63 57 69 65 64 92 -7 34
-47 81 -88 102 -26 13 -148 20 -148 8z"/>
<path d="M2000 2920 c0 -48 -38 -107 -92 -141 -88 -57 -124 -121 -116 -209 l5
-47 -83 33 c-238 93 -526 117 -787 63 -157 -32 -268 -93 -396 -219 -115 -112
-196 -160 -320 -186 -40 -8 -85 -21 -100 -29 -99 -51 -145 -194 -85 -264 14
-17 39 -39 55 -48 16 -10 34 -32 40 -50 15 -46 54 -90 100 -114 36 -18 39 -22
39 -64 0 -24 4 -46 9 -49 5 -3 22 10 38 30 l29 37 -4 -37 c-2 -20 -1 -47 2
-61 9 -35 33 -21 77 44 42 61 62 66 259 65 115 -1 148 -5 223 -28 164 -49 284
-123 403 -249 109 -114 182 -250 219 -410 l14 -60 -27 26 c-29 27 -71 47 -102
47 -13 0 -29 -19 -50 -59 -17 -32 -45 -71 -61 -87 l-29 -28 0 72 c0 40 -4 72
-9 72 -5 0 -17 -22 -26 -49 -8 -26 -29 -70 -46 -96 -29 -46 -31 -47 -70 -42
-58 8 -123 50 -144 93 -17 35 -17 40 -1 83 33 94 11 126 -88 126 -73 0 -119
-25 -160 -88 -62 -97 -35 -262 62 -369 24 -26 30 -39 21 -42 -8 -2 -27 -8 -43
-13 -46 -14 -41 -26 21 -54 206 -94 427 -99 619 -14 198 87 356 271 414 480
l17 60 7 -62 c15 -131 -30 -324 -105 -449 -35 -60 -138 -171 -199 -216 -19
-14 -33 -28 -30 -32 9 -8 180 29 271 59 44 15 82 25 85 23 2 -3 -33 -43 -78
-90 -94 -96 -198 -177 -308 -238 l-75 -42 80 6 c167 12 370 88 544 203 103 69
239 201 309 302 29 41 52 68 52 62 0 -7 -14 -54 -31 -105 -34 -101 -91 -221
-139 -290 -95 -140 169 82 289 241 89 119 156 256 199 409 l27 98 7 -45 c3
-24 7 -99 7 -166 1 -68 4 -123 9 -123 11 0 75 104 121 195 53 106 96 239 117
355 20 114 14 385 -10 491 -60 264 -205 558 -356 721 l-48 53 -7 -50 c-42
-279 -294 -476 -575 -450 l-75 7 55 15 c191 49 343 193 395 377 39 134 13 304
-63 422 -59 90 -196 201 -274 219 -26 7 -28 5 -28 -25z"/>
</g>
</svg>
